<svg xmlns="http://www.w3.org/2000/svg" viewBox="0 0 84.59 30.88"><defs><style>.a{fill:#111110;}</style></defs><title>dotfiles</title><circle class="a" cx="5.99" cy="21.4" r="5.99"/><path class="a" d="M23.47,40h3.4V21.21h-3.4v-.73h3.4V17.73a8.43,8.43,0,0,1,.62-3.38A6.07,6.07,0,0,1,29.17,12a6.82,6.82,0,0,1,2.48-1.29,10.78,10.78,0,0,1,3.06-.42,9.36,9.36,0,0,1,4.48.84c1,.56,1.52,1.16,1.52,1.8a1,1,0,0,1-2.08,0,1.12,1.12,0,0,1,.88-1.08v-.08a7.43,7.43,0,0,0-2.16-.66A16.45,16.45,0,0,0,34.67,11a9.21,9.21,0,0,0-2.74.38,6,6,0,0,0-2.2,1.17,5.6,5.6,0,0,0-1.48,2,7.52,7.52,0,0,0-.54,3v2.92h8.6l4.16-.31V40h3.4v.73H36.23V40h3.4V21.21H27.71V40h4.2v.73H23.47Z" transform="translate(-8 -10.33)"/><path class="a" d="M46.47,40h3.4V11.69l-3.4-.21V11l4.24-.41V40h3.4v.73H46.47Z" transform="translate(-8 -10.33)"/><path class="a" d="M66.27,41.21a8.93,8.93,0,0,1-3.44-.65,7.07,7.07,0,0,1-2.7-1.94,9.15,9.15,0,0,1-1.78-3.29,15.51,15.51,0,0,1-.64-4.73,15.38,15.38,0,0,1,.62-4.54,9.33,9.33,0,0,1,1.76-3.31,7.33,7.33,0,0,1,2.74-2A8.65,8.65,0,0,1,66.35,20a7.27,7.27,0,0,1,3.24.71,7.14,7.14,0,0,1,2.46,1.94,8.66,8.66,0,0,1,1.56,3,12.53,12.53,0,0,1,.54,3.77v.36H58.63v1.64q0,4.56,2.12,6.84a7.17,7.17,0,0,0,5.52,2.27,7.29,7.29,0,0,0,2.4-.36,7.17,7.17,0,0,0,1.92-.95,8.36,8.36,0,0,0,1.48-1.36,9.5,9.5,0,0,0,1.08-1.56l.56.31a11.47,11.47,0,0,1-1.08,1.63,8.59,8.59,0,0,1-1.56,1.5,7.93,7.93,0,0,1-4.8,1.52Zm7-12.13a11.12,11.12,0,0,0-.48-3.33,8.2,8.2,0,0,0-1.36-2.67,6.16,6.16,0,0,0-2.16-1.73,6.41,6.41,0,0,0-2.88-.62,7.73,7.73,0,0,0-3.08.6A7.1,7.1,0,0,0,60.85,23a8.09,8.09,0,0,0-1.6,2.65,10.19,10.19,0,0,0-.62,3.41Z" transform="translate(-8 -10.33)"/><path class="a" d="M85.75,41.21a7.56,7.56,0,0,1-3.84-.82,5.57,5.57,0,0,1-2-1.94h-.12v2.28H79V35h.84v1.4a3.49,3.49,0,0,0,.46,1.84,3.89,3.89,0,0,0,1.28,1.27,6.11,6.11,0,0,0,1.9.77,10.68,10.68,0,0,0,2.32.23,7.1,7.1,0,0,0,4.42-1.21,4.18,4.18,0,0,0,1.58-3.5,3.91,3.91,0,0,0-1.28-3.23A9.45,9.45,0,0,0,86.71,31L85,30.56a16,16,0,0,1-2.32-.67,6.59,6.59,0,0,1-1.8-1,4.24,4.24,0,0,1-1.16-1.58,5.73,5.73,0,0,1-.4-2.27,4.23,4.23,0,0,1,1.82-3.73A7.86,7.86,0,0,1,85.67,20a6.84,6.84,0,0,1,3.66.83,4.42,4.42,0,0,1,1.78,1.86h.12V20.48h.84v5.77h-.84V25a3.61,3.61,0,0,0-1.52-3.18,8.23,8.23,0,0,0-8.08,0A3.61,3.61,0,0,0,80.11,25a4.82,4.82,0,0,0,.34,1.94,3.75,3.75,0,0,0,1,1.32,5.07,5.07,0,0,0,1.56.89,15.59,15.59,0,0,0,2.14.65l1.76.4a16.32,16.32,0,0,1,2.38.74A6.07,6.07,0,0,1,91.05,32a4.31,4.31,0,0,1,1.14,1.55,5.49,5.49,0,0,1,.4,2.21,4.87,4.87,0,0,1-1.82,4.06A8,8,0,0,1,85.75,41.21Z" transform="translate(-8 -10.33)"/></svg>